<svg xmlns="http://www.w3.org/2000/svg" xmlns:xlink="http://www.w3.org/1999/xlink" width="512" zoomAndPan="magnify" viewBox="0 0 384 383.999986" height="512" preserveAspectRatio="xMidYMid meet" version="1.0"><defs><clipPath id="id1"><path d="M 74 46 L 312 46 L 312 336 L 74 336 Z M 74 46 " clip-rule="nonzero"/></clipPath><clipPath id="id2"><path d="M 88.253906 84.855469 C 90.082031 72.976562 101.800781 64.023438 111.453125 60.664062 C 117.851562 58.433594 124.894531 56.765625 129.867188 56.550781 C 135.242188 56.308594 136.265625 60.339844 133.253906 61.925781 C 117.445312 70.152344 103.84375 80.933594 95.914062 89.425781 C 92.554688 92.976562 87.5 89.667969 88.253906 84.855469 Z M 141.855469 233.621094 C 144.273438 233.757812 146.535156 233.140625 148.441406 231.792969 C 154.652344 227.386719 161.078125 219.777344 165.457031 213.113281 C 171.425781 204.027344 175.621094 194.886719 178.253906 185.15625 C 180.648438 176.363281 186.722656 175.421875 189.195312 175.421875 C 190.191406 175.421875 191.183594 175.558594 192.152344 175.800781 C 198.335938 177.332031 201.453125 183.835938 200.433594 193.21875 C 199.707031 199.941406 196.398438 207.707031 194.785156 210.34375 C 193.253906 212.84375 192.769531 215.664062 193.441406 218.273438 C 194.035156 220.691406 195.566406 222.683594 197.851562 224.027344 C 198.953125 224.671875 200.136719 224.992188 201.425781 224.992188 C 205.242188 224.992188 209.652344 222.117188 212.125 218.003906 L 212.394531 217.574219 C 217.851562 208.972656 221.238281 199.429688 221.9375 190.664062 C 223.175781 175.15625 218.710938 164.214844 208.28125 157.195312 C 203.226562 153.78125 196.667969 151.929688 189.785156 151.929688 C 186.105469 151.929688 182.449219 152.492188 179.25 153.515625 C 164.570312 158.273438 161.425781 167.789062 158.066406 177.84375 C 155.726562 184.859375 153.09375 192.816406 147.339844 201.550781 C 143.871094 206.820312 140.644531 212.898438 135.996094 217.601562 C 134.085938 219.511719 130.082031 224.5625 134.113281 229.804688 C 136.238281 232.574219 139.382812 233.355469 141.667969 233.515625 Z M 109.488281 123.539062 C 111.910156 123.539062 114.140625 122.410156 115.617188 120.449219 C 132.929688 97.382812 156.398438 84.777344 185.378906 82.976562 C 187.042969 82.867188 188.847656 82.8125 190.699219 82.8125 C 205.164062 82.8125 219.867188 85.796875 230.027344 90.824219 C 231.078125 91.335938 232.207031 91.605469 233.363281 91.605469 C 236.320312 91.605469 239.0625 89.832031 240.351562 87.089844 C 241.238281 85.179688 241.347656 83.003906 240.675781 81.011719 C 240.003906 78.996094 238.578125 77.382812 236.722656 76.46875 C 224.570312 70.476562 207.3125 66.898438 190.511719 66.898438 C 188.414062 66.898438 186.371094 66.953125 184.464844 67.089844 C 151.292969 69.132812 123.253906 84.210938 103.386719 110.71875 C 102.125 112.410156 101.558594 114.480469 101.828125 116.605469 C 102.097656 118.703125 103.144531 120.582031 104.757812 121.902344 C 106.050781 122.921875 107.609375 123.515625 109.222656 123.566406 C 109.246094 123.539062 109.488281 123.539062 109.488281 123.539062 Z M 84.757812 224.347656 C 100.859375 215.960938 113.414062 203.890625 122.097656 188.488281 C 126.828125 180.074219 130.296875 172.414062 133.335938 165.664062 C 139.035156 153.058594 144.328125 147.789062 151.992188 140.582031 C 155.378906 137.386719 155.886719 132.25 153.121094 128.917969 C 151.34375 126.792969 147.929688 124.132812 145.082031 124.132812 C 142.636719 124.132812 140.351562 125.019531 138.628906 126.632812 C 127.796875 136.6875 122.125 146.445312 116.425781 159.050781 C 113.386719 165.773438 110.242188 172.734375 105.886719 180.476562 C 100 190.933594 91.910156 199.507812 81.800781 205.933594 C 79.167969 207.601562 77.929688 210.421875 78.628906 213.113281 C 79.515625 216.527344 80.589844 219.96875 81.800781 223.328125 C 82.070312 224.078125 82.875 224.589844 83.765625 224.589844 C 84.085938 224.617188 84.4375 224.511719 84.757812 224.347656 Z M 76.71875 178.890625 C 77.097656 178.890625 77.632812 178.785156 78.117188 178.328125 C 84.867188 171.632812 90.59375 162.546875 96.695312 148.863281 C 97.5 147.0625 97.472656 145.101562 96.640625 143.324219 C 95.699219 141.335938 93.871094 139.832031 91.558594 139.1875 C 90.832031 138.972656 90.082031 138.890625 89.355469 138.890625 C 86.023438 138.890625 82.929688 140.878906 81.558594 143.808594 C 77.070312 153.40625 76.046875 159.292969 75.242188 166.015625 C 74.328125 173.566406 75.054688 178.085938 75.296875 178.328125 C 75.589844 178.675781 76.15625 178.890625 76.71875 178.890625 Z M 197.421875 290.855469 C 199.839844 290.855469 202.285156 289.96875 203.632812 289.242188 C 216.023438 282.332031 233.390625 262.953125 241.398438 252.359375 C 277.316406 204.859375 267.796875 158.460938 248.738281 133.164062 C 235.460938 115.53125 215.433594 105.824219 192.394531 105.824219 C 187.957031 105.824219 183.414062 106.175781 178.847656 106.902344 C 173.84375 107.679688 171.183594 113.835938 171.964844 118.863281 C 172.664062 123.296875 176.535156 126.632812 181.023438 126.632812 C 181.480469 126.632812 181.964844 126.605469 182.449219 126.523438 C 185.996094 125.960938 189.492188 125.691406 192.878906 125.691406 C 217.179688 125.691406 229.570312 138.246094 234.089844 144.265625 C 249.304688 164.457031 256.507812 201.957031 226.777344 241.257812 C 219.007812 251.5 203.550781 268.488281 193.765625 276.472656 C 191.480469 278.328125 190 281.390625 189.976562 284.269531 C 189.976562 285.667969 190.324219 287.601562 192.019531 289 C 193.523438 290.238281 195.324219 290.855469 197.421875 290.855469 Z M 135.671875 292.066406 C 152.097656 282.386719 173.121094 267.734375 185.863281 253.328125 C 187.71875 251.230469 188.523438 248.433594 188.011719 245.640625 C 187.527344 242.816406 185.808594 240.503906 183.226562 239.078125 C 181.992188 238.40625 180.621094 238.058594 179.167969 238.058594 C 176.425781 238.058594 173.765625 239.296875 171.855469 241.445312 C 157.472656 257.574219 132.097656 273.355469 116.910156 281.609375 C 116.371094 281.902344 116.210938 282.386719 116.15625 282.65625 C 116.101562 282.925781 116.101562 283.460938 116.53125 283.945312 C 118.65625 286.203125 120.859375 288.433594 123.066406 290.585938 C 125.027344 292.496094 127.609375 293.515625 130.324219 293.515625 C 132.257812 293.515625 134.085938 293.03125 135.671875 292.066406 Z M 159.707031 316.796875 C 161.910156 316.796875 164.035156 316.179688 165.914062 315.046875 C 167.957031 313.785156 170.054688 312.46875 172.207031 311.097656 C 174.0625 309.914062 175.351562 307.980469 175.699219 305.800781 C 176.078125 303.597656 175.511719 301.394531 174.113281 299.617188 C 172.691406 297.816406 170.484375 296.796875 168.039062 296.796875 C 166.371094 296.796875 164.734375 297.28125 163.335938 298.167969 C 158.09375 301.527344 152.609375 304.832031 147.097656 308.03125 C 146.480469 308.382812 146.398438 308.972656 146.371094 309.214844 C 146.34375 309.511719 146.425781 310.046875 146.964844 310.453125 C 149.058594 311.984375 151.128906 313.4375 153.144531 314.808594 C 155.082031 316.097656 157.367188 316.796875 159.707031 316.796875 Z M 297.582031 227.761719 C 303.847656 209.078125 305.730469 189.265625 303.203125 168.835938 C 302.367188 162.195312 301.1875 155.152344 299.707031 148.085938 C 298.039062 142.574219 296.050781 137.167969 293.792969 132.035156 C 287.449219 117.625 278.335938 105.097656 266.695312 94.804688 C 265.246094 93.511719 263.363281 92.8125 261.425781 92.8125 C 259.140625 92.8125 256.964844 93.78125 255.460938 95.503906 C 252.554688 98.78125 252.851562 103.835938 256.160156 106.738281 C 266.050781 115.503906 273.820312 126.175781 279.222656 138.460938 C 291.105469 165.449219 292.503906 194 283.230469 221.042969 C 282.53125 223.058594 282.664062 225.207031 283.605469 227.117188 C 284.546875 229.027344 286.160156 230.449219 288.175781 231.148438 C 289.007812 231.445312 289.894531 231.578125 290.757812 231.578125 C 293.578125 231.605469 296.160156 230.128906 297.582031 227.761719 Z M 191.75 335.855469 C 200.96875 331.824219 233.28125 316.445312 261.589844 288.140625 C 268.875 280.640625 275.351562 272.84375 280.917969 265.019531 C 282.234375 263.167969 282.691406 260.828125 282.207031 258.597656 C 281.695312 256.339844 280.296875 254.457031 278.28125 253.300781 C 277.125 252.65625 275.863281 252.304688 274.519531 252.304688 C 271.804688 252.304688 269.117188 253.703125 267.53125 255.960938 C 248.496094 282.710938 219.167969 306.796875 180.378906 327.601562 C 179.410156 328.113281 179.304688 329.027344 179.304688 329.402344 C 179.304688 329.78125 179.4375 330.695312 180.40625 331.179688 C 184.785156 333.410156 188.121094 334.914062 190.136719 335.800781 C 190.40625 335.910156 190.675781 335.964844 190.941406 335.964844 C 191.210938 336.015625 191.480469 335.964844 191.75 335.855469 Z M 105.242188 264.242188 C 106.964844 264.242188 108.65625 263.785156 110.160156 262.871094 C 112.5 261.472656 114.839844 259.96875 117.125 258.40625 C 119.464844 256.820312 120.996094 254.429688 121.480469 251.632812 C 121.964844 248.863281 121.292969 246.070312 119.625 243.8125 C 117.769531 241.285156 114.785156 239.832031 111.453125 239.832031 C 109.167969 239.832031 106.9375 240.503906 105 241.796875 C 101.15625 244.375 97.125 246.742188 93.066406 248.839844 C 92.554688 249.105469 92.203125 249.535156 92.042969 250.074219 C 91.882812 250.613281 91.9375 251.175781 92.230469 251.6875 C 93.789062 254.457031 95.457031 257.199219 97.203125 259.886719 C 98.980469 262.628906 101.964844 264.242188 105.242188 264.242188 Z M 192.769531 46.820312 C 189.328125 46.148438 185.027344 46.011719 181.050781 46.820312 C 177.070312 47.625 177.554688 51.441406 181.453125 51.792969 C 183.308594 51.953125 186.9375 51.898438 186.9375 51.898438 C 186.9375 51.898438 190.566406 51.953125 192.421875 51.792969 C 196.292969 51.441406 196.238281 47.492188 192.769531 46.820312 Z M 79.382812 117.625 C 80.539062 115.636719 82.472656 111.550781 82.472656 111.550781 C 82.472656 111.550781 84.488281 107.519531 85.375 105.394531 C 87.203125 100.90625 81.210938 98.433594 77.632812 103.917969 C 74.4375 108.835938 74.21875 113.566406 74.195312 115.558594 C 74.167969 122.0625 76.960938 121.847656 79.382812 117.625 Z M 290.082031 89.425781 C 282.125 80.933594 268.550781 70.179688 252.746094 61.925781 C 249.734375 60.339844 250.753906 56.335938 256.132812 56.550781 C 261.105469 56.765625 268.121094 58.433594 274.546875 60.664062 C 284.195312 64.023438 295.945312 72.976562 297.746094 84.855469 C 298.445312 89.667969 293.390625 92.976562 290.082031 89.425781 Z M 311.777344 115.582031 C 311.777344 113.59375 311.5625 108.835938 308.335938 103.945312 C 304.761719 98.460938 298.765625 100.933594 300.59375 105.421875 C 301.453125 107.574219 303.5 111.578125 303.5 111.578125 C 303.5 111.578125 305.433594 115.664062 306.589844 117.652344 C 309.007812 121.847656 311.777344 122.0625 311.777344 115.582031 Z M 311.777344 115.582031 " clip-rule="nonzero"/></clipPath><linearGradient x1="-410.233927" gradientTransform="matrix(2.129062, -0.0650547, -0.0881733, 2.521541, 929.837492, 502.331002)" y1="-191.06444" x2="-283.855993" gradientUnits="userSpaceOnUse" y2="-84.807411" id="id3"><stop stop-opacity="1" stop-color="rgb(0%, 100%, 0%)" offset="0"/><stop stop-opacity="1" stop-color="rgb(0%, 100%, 0%)" offset="0.0625"/><stop stop-opacity="1" stop-color="rgb(0%, 100%, 0%)" offset="0.078125"/><stop stop-opacity="1" stop-color="rgb(0%, 100%, 0%)" offset="0.0859375"/><stop stop-opacity="1" stop-color="rgb(0.131226%, 99.940491%, 0.38147%)" offset="0.0898438"/><stop stop-opacity="1" stop-color="rgb(0.262451%, 99.882507%, 0.764465%)" offset="0.09375"/><stop stop-opacity="1" stop-color="rgb(0.424194%, 99.810791%, 1.234436%)" offset="0.0976562"/><stop stop-opacity="1" stop-color="rgb(0.585938%, 99.740601%, 1.705933%)" offset="0.101562"/><stop stop-opacity="1" stop-color="rgb(0.747681%, 99.668884%, 2.175903%)" offset="0.105469"/><stop stop-opacity="1" stop-color="rgb(0.909424%, 99.598694%, 2.6474%)" offset="0.109375"/><stop stop-opacity="1" stop-color="rgb(1.071167%, 99.526978%, 3.117371%)" offset="0.113281"/><stop stop-opacity="1" stop-color="rgb(1.234436%, 99.455261%, 3.588867%)" offset="0.117187"/><stop stop-opacity="1" stop-color="rgb(1.396179%, 99.383545%, 4.058838%)" offset="0.121094"/><stop stop-opacity="1" stop-color="rgb(1.557922%, 99.313354%, 4.530334%)" offset="0.125"/><stop stop-opacity="1" stop-color="rgb(1.719666%, 99.241638%, 5.000305%)" offset="0.128906"/><stop stop-opacity="1" stop-color="rgb(1.881409%, 99.169922%, 5.471802%)" offset="0.132812"/><stop stop-opacity="1" stop-color="rgb(2.043152%, 99.098206%, 5.941772%)" offset="0.136719"/><stop stop-opacity="1" stop-color="rgb(2.204895%, 99.028015%, 6.413269%)" offset="0.140625"/><stop stop-opacity="1" stop-color="rgb(2.366638%, 98.956299%, 6.88324%)" offset="0.144531"/><stop stop-opacity="1" stop-color="rgb(2.528381%, 98.884583%, 7.354736%)" offset="0.148437"/><stop stop-opacity="1" stop-color="rgb(2.690125%, 98.812866%, 7.824707%)" offset="0.152344"/><stop stop-opacity="1" stop-color="rgb(2.853394%, 98.742676%, 8.294678%)" offset="0.15625"/><stop stop-opacity="1" stop-color="rgb(3.015137%, 98.670959%, 8.764648%)" offset="0.160156"/><stop stop-opacity="1" stop-color="rgb(3.17688%, 98.599243%, 9.236145%)" offset="0.164062"/><stop stop-opacity="1" stop-color="rgb(3.338623%, 98.527527%, 9.706116%)" offset="0.167969"/><stop stop-opacity="1" stop-color="rgb(3.500366%, 98.457336%, 10.177612%)" offset="0.171875"/><stop stop-opacity="1" stop-color="rgb(3.662109%, 98.38562%, 10.647583%)" offset="0.175781"/><stop stop-opacity="1" stop-color="rgb(3.823853%, 98.31543%, 11.11908%)" offset="0.179688"/><stop stop-opacity="1" stop-color="rgb(3.985596%, 98.243713%, 11.58905%)" offset="0.183594"/><stop stop-opacity="1" stop-color="rgb(4.147339%, 98.171997%, 12.060547%)" offset="0.1875"/><stop stop-opacity="1" stop-color="rgb(4.309082%, 98.100281%, 12.530518%)" offset="0.191406"/><stop stop-opacity="1" stop-color="rgb(4.472351%, 98.03009%, 13.002014%)" offset="0.195312"/><stop stop-opacity="1" stop-color="rgb(4.634094%, 97.958374%, 13.471985%)" offset="0.199219"/><stop stop-opacity="1" stop-color="rgb(4.795837%, 97.886658%, 13.943481%)" offset="0.203125"/><stop stop-opacity="1" stop-color="rgb(4.957581%, 97.814941%, 14.413452%)" offset="0.207031"/><stop stop-opacity="1" stop-color="rgb(5.119324%, 97.744751%, 14.884949%)" offset="0.210937"/><stop stop-opacity="1" stop-color="rgb(5.281067%, 97.673035%, 15.354919%)" offset="0.214844"/><stop stop-opacity="1" stop-color="rgb(5.44281%, 97.601318%, 15.826416%)" offset="0.21875"/><stop stop-opacity="1" stop-color="rgb(5.604553%, 97.529602%, 16.296387%)" offset="0.222656"/><stop stop-opacity="1" stop-color="rgb(5.766296%, 97.459412%, 16.767883%)" offset="0.226562"/><stop stop-opacity="1" stop-color="rgb(5.92804%, 97.387695%, 17.237854%)" offset="0.230469"/><stop stop-opacity="1" stop-color="rgb(6.091309%, 97.315979%, 17.709351%)" offset="0.234375"/><stop stop-opacity="1" stop-color="rgb(6.253052%, 97.244263%, 18.179321%)" offset="0.238281"/><stop stop-opacity="1" stop-color="rgb(6.414795%, 97.174072%, 18.649292%)" offset="0.242188"/><stop stop-opacity="1" stop-color="rgb(6.576538%, 97.102356%, 19.119263%)" offset="0.246094"/><stop stop-opacity="1" stop-color="rgb(6.738281%, 97.032166%, 19.590759%)" offset="0.25"/><stop stop-opacity="1" stop-color="rgb(6.900024%, 96.960449%, 20.06073%)" offset="0.253906"/><stop stop-opacity="1" stop-color="rgb(7.061768%, 96.888733%, 20.532227%)" offset="0.257812"/><stop stop-opacity="1" stop-color="rgb(7.223511%, 96.817017%, 21.002197%)" offset="0.261719"/><stop stop-opacity="1" stop-color="rgb(7.385254%, 96.746826%, 21.473694%)" offset="0.265625"/><stop stop-opacity="1" stop-color="rgb(7.546997%, 96.67511%, 21.943665%)" offset="0.269531"/><stop stop-opacity="1" stop-color="rgb(7.710266%, 96.603394%, 22.415161%)" offset="0.273437"/><stop stop-opacity="1" stop-color="rgb(7.872009%, 96.531677%, 22.885132%)" offset="0.277344"/><stop stop-opacity="1" stop-color="rgb(8.033752%, 96.461487%, 23.356628%)" offset="0.28125"/><stop stop-opacity="1" stop-color="rgb(8.195496%, 96.389771%, 23.826599%)" offset="0.285156"/><stop stop-opacity="1" stop-color="rgb(8.357239%, 96.318054%, 24.298096%)" offset="0.289062"/><stop stop-opacity="1" stop-color="rgb(8.518982%, 96.246338%, 24.768066%)" offset="0.292969"/><stop stop-opacity="1" stop-color="rgb(8.680725%, 96.176147%, 25.239563%)" offset="0.296875"/><stop stop-opacity="1" stop-color="rgb(8.842468%, 96.104431%, 25.709534%)" offset="0.300781"/><stop stop-opacity="1" stop-color="rgb(9.004211%, 96.032715%, 26.18103%)" offset="0.304687"/><stop stop-opacity="1" stop-color="rgb(9.165955%, 95.960999%, 26.651001%)" offset="0.308594"/><stop stop-opacity="1" stop-color="rgb(9.327698%, 95.890808%, 27.122498%)" offset="0.3125"/><stop stop-opacity="1" stop-color="rgb(9.489441%, 95.819092%, 27.592468%)" offset="0.316406"/><stop stop-opacity="1" stop-color="rgb(9.65271%, 95.747375%, 28.062439%)" offset="0.320312"/><stop stop-opacity="1" stop-color="rgb(9.814453%, 95.675659%, 28.53241%)" offset="0.324219"/><stop stop-opacity="1" stop-color="rgb(9.976196%, 95.605469%, 29.003906%)" offset="0.328125"/><stop stop-opacity="1" stop-color="rgb(10.137939%, 95.533752%, 29.473877%)" offset="0.332031"/><stop stop-opacity="1" stop-color="rgb(10.299683%, 95.463562%, 29.945374%)" offset="0.335938"/><stop stop-opacity="1" stop-color="rgb(10.461426%, 95.391846%, 30.415344%)" offset="0.339844"/><stop stop-opacity="1" stop-color="rgb(10.623169%, 95.320129%, 30.886841%)" offset="0.34375"/><stop stop-opacity="1" stop-color="rgb(10.784912%, 95.248413%, 31.356812%)" offset="0.347656"/><stop stop-opacity="1" stop-color="rgb(10.946655%, 95.178223%, 31.828308%)" offset="0.351562"/><stop stop-opacity="1" stop-color="rgb(11.108398%, 95.106506%, 32.298279%)" offset="0.355469"/><stop stop-opacity="1" stop-color="rgb(11.271667%, 95.03479%, 32.769775%)" offset="0.359375"/><stop stop-opacity="1" stop-color="rgb(11.433411%, 94.963074%, 33.239746%)" offset="0.363281"/><stop stop-opacity="1" stop-color="rgb(11.595154%, 94.892883%, 33.711243%)" offset="0.367187"/><stop stop-opacity="1" stop-color="rgb(11.756897%, 94.821167%, 34.181213%)" offset="0.371094"/><stop stop-opacity="1" stop-color="rgb(11.91864%, 94.749451%, 34.65271%)" offset="0.375"/><stop stop-opacity="1" stop-color="rgb(12.080383%, 94.677734%, 35.122681%)" offset="0.378906"/><stop stop-opacity="1" stop-color="rgb(12.242126%, 94.607544%, 35.594177%)" offset="0.382812"/><stop stop-opacity="1" stop-color="rgb(12.40387%, 94.535828%, 36.064148%)" offset="0.386719"/><stop stop-opacity="1" stop-color="rgb(12.565613%, 94.464111%, 36.535645%)" offset="0.390625"/><stop stop-opacity="1" stop-color="rgb(12.727356%, 94.392395%, 37.005615%)" offset="0.394531"/><stop stop-opacity="1" stop-color="rgb(12.890625%, 94.322205%, 37.477112%)" offset="0.398438"/><stop stop-opacity="1" stop-color="rgb(13.052368%, 94.250488%, 37.947083%)" offset="0.402344"/><stop stop-opacity="1" stop-color="rgb(13.214111%, 94.180298%, 38.417053%)" offset="0.40625"/><stop stop-opacity="1" stop-color="rgb(13.375854%, 94.108582%, 38.887024%)" offset="0.410156"/><stop stop-opacity="1" stop-color="rgb(13.537598%, 94.036865%, 39.358521%)" offset="0.414062"/><stop stop-opacity="1" stop-color="rgb(13.699341%, 93.965149%, 39.828491%)" offset="0.417969"/><stop stop-opacity="1" stop-color="rgb(13.861084%, 93.894958%, 40.299988%)" offset="0.421875"/><stop stop-opacity="1" stop-color="rgb(14.022827%, 93.823242%, 40.769958%)" offset="0.425781"/><stop stop-opacity="1" stop-color="rgb(14.18457%, 93.751526%, 41.241455%)" offset="0.429687"/><stop stop-opacity="1" stop-color="rgb(14.346313%, 93.67981%, 41.711426%)" offset="0.433594"/><stop stop-opacity="1" stop-color="rgb(14.509583%, 93.609619%, 42.182922%)" offset="0.4375"/><stop stop-opacity="1" stop-color="rgb(14.671326%, 93.537903%, 42.652893%)" offset="0.441406"/><stop stop-opacity="1" stop-color="rgb(14.833069%, 93.466187%, 43.12439%)" offset="0.445312"/><stop stop-opacity="1" stop-color="rgb(14.994812%, 93.39447%, 43.59436%)" offset="0.449219"/><stop stop-opacity="1" stop-color="rgb(15.156555%, 93.32428%, 44.065857%)" offset="0.453125"/><stop stop-opacity="1" stop-color="rgb(15.318298%, 93.252563%, 44.535828%)" offset="0.457031"/><stop stop-opacity="1" stop-color="rgb(15.480042%, 93.180847%, 45.007324%)" offset="0.460937"/><stop stop-opacity="1" stop-color="rgb(15.641785%, 93.109131%, 45.477295%)" offset="0.464844"/><stop stop-opacity="1" stop-color="rgb(15.803528%, 93.03894%, 45.948792%)" offset="0.46875"/><stop stop-opacity="1" stop-color="rgb(15.965271%, 92.967224%, 46.418762%)" offset="0.472656"/><stop stop-opacity="1" stop-color="rgb(16.12854%, 92.895508%, 46.890259%)" offset="0.476562"/><stop stop-opacity="1" stop-color="rgb(16.290283%, 92.823792%, 47.360229%)" offset="0.480469"/><stop stop-opacity="1" stop-color="rgb(16.452026%, 92.753601%, 47.831726%)" offset="0.484375"/><stop stop-opacity="1" stop-color="rgb(16.61377%, 92.681885%, 48.301697%)" offset="0.488281"/><stop stop-opacity="1" stop-color="rgb(16.775513%, 92.611694%, 48.771667%)" offset="0.492187"/><stop stop-opacity="1" stop-color="rgb(16.937256%, 92.539978%, 49.241638%)" offset="0.496094"/><stop stop-opacity="1" stop-color="rgb(17.098999%, 92.468262%, 49.713135%)" offset="0.5"/><stop stop-opacity="1" stop-color="rgb(17.260742%, 92.396545%, 50.183105%)" offset="0.503906"/><stop stop-opacity="1" stop-color="rgb(17.422485%, 92.326355%, 50.654602%)" offset="0.507812"/><stop stop-opacity="1" stop-color="rgb(17.584229%, 92.254639%, 51.124573%)" offset="0.511719"/><stop stop-opacity="1" stop-color="rgb(17.745972%, 92.182922%, 51.596069%)" offset="0.515625"/><stop stop-opacity="1" stop-color="rgb(17.907715%, 92.111206%, 52.06604%)" offset="0.519531"/><stop stop-opacity="1" stop-color="rgb(18.070984%, 92.041016%, 52.537537%)" offset="0.523437"/><stop stop-opacity="1" stop-color="rgb(18.232727%, 91.969299%, 53.007507%)" offset="0.527344"/><stop stop-opacity="1" stop-color="rgb(18.39447%, 91.897583%, 53.479004%)" offset="0.53125"/><stop stop-opacity="1" stop-color="rgb(18.556213%, 91.825867%, 53.948975%)" offset="0.535156"/><stop stop-opacity="1" stop-color="rgb(18.717957%, 91.755676%, 54.420471%)" offset="0.539062"/><stop stop-opacity="1" stop-color="rgb(18.8797%, 91.68396%, 54.890442%)" offset="0.542969"/><stop stop-opacity="1" stop-color="rgb(19.041443%, 91.612244%, 55.361938%)" offset="0.546875"/><stop stop-opacity="1" stop-color="rgb(19.203186%, 91.540527%, 55.831909%)" offset="0.550781"/><stop stop-opacity="1" stop-color="rgb(19.364929%, 91.470337%, 56.303406%)" offset="0.554688"/><stop stop-opacity="1" stop-color="rgb(19.526672%, 91.398621%, 56.773376%)" offset="0.558594"/><stop stop-opacity="1" stop-color="rgb(19.689941%, 91.32843%, 57.244873%)" offset="0.5625"/><stop stop-opacity="1" stop-color="rgb(19.851685%, 91.256714%, 57.714844%)" offset="0.566406"/><stop stop-opacity="1" stop-color="rgb(20.013428%, 91.184998%, 58.184814%)" offset="0.570312"/><stop stop-opacity="1" stop-color="rgb(20.175171%, 91.113281%, 58.654785%)" offset="0.574219"/><stop stop-opacity="1" stop-color="rgb(20.336914%, 91.043091%, 59.126282%)" offset="0.578125"/><stop stop-opacity="1" stop-color="rgb(20.498657%, 90.971375%, 59.596252%)" offset="0.582031"/><stop stop-opacity="1" stop-color="rgb(20.6604%, 90.899658%, 60.067749%)" offset="0.585937"/><stop stop-opacity="1" stop-color="rgb(20.822144%, 90.827942%, 60.53772%)" offset="0.589844"/><stop stop-opacity="1" stop-color="rgb(20.983887%, 90.757751%, 61.009216%)" offset="0.59375"/><stop stop-opacity="1" stop-color="rgb(21.14563%, 90.686035%, 61.479187%)" offset="0.597656"/><stop stop-opacity="1" stop-color="rgb(21.308899%, 90.614319%, 61.950684%)" offset="0.601562"/><stop stop-opacity="1" stop-color="rgb(21.470642%, 90.542603%, 62.420654%)" offset="0.605469"/><stop stop-opacity="1" stop-color="rgb(21.632385%, 90.472412%, 62.892151%)" offset="0.609375"/><stop stop-opacity="1" stop-color="rgb(21.794128%, 90.400696%, 63.362122%)" offset="0.613281"/><stop stop-opacity="1" stop-color="rgb(21.955872%, 90.328979%, 63.833618%)" offset="0.617187"/><stop stop-opacity="1" stop-color="rgb(22.117615%, 90.257263%, 64.303589%)" offset="0.621094"/><stop stop-opacity="1" stop-color="rgb(22.279358%, 90.187073%, 64.775085%)" offset="0.625"/><stop stop-opacity="1" stop-color="rgb(22.441101%, 90.115356%, 65.245056%)" offset="0.628906"/><stop stop-opacity="1" stop-color="rgb(22.602844%, 90.045166%, 65.716553%)" offset="0.632812"/><stop stop-opacity="1" stop-color="rgb(22.764587%, 89.97345%, 66.186523%)" offset="0.636719"/><stop stop-opacity="1" stop-color="rgb(22.927856%, 89.901733%, 66.65802%)" offset="0.640625"/><stop stop-opacity="1" stop-color="rgb(23.0896%, 89.830017%, 67.127991%)" offset="0.644531"/><stop stop-opacity="1" stop-color="rgb(23.251343%, 89.759827%, 67.599487%)" offset="0.648437"/><stop stop-opacity="1" stop-color="rgb(23.413086%, 89.68811%, 68.069458%)" offset="0.652344"/><stop stop-opacity="1" stop-color="rgb(23.574829%, 89.616394%, 68.539429%)" offset="0.65625"/><stop stop-opacity="1" stop-color="rgb(23.736572%, 89.544678%, 69.009399%)" offset="0.660156"/><stop stop-opacity="1" stop-color="rgb(23.898315%, 89.474487%, 69.480896%)" offset="0.664062"/><stop stop-opacity="1" stop-color="rgb(24.060059%, 89.402771%, 69.950867%)" offset="0.667969"/><stop stop-opacity="1" stop-color="rgb(24.221802%, 89.331055%, 70.422363%)" offset="0.671875"/><stop stop-opacity="1" stop-color="rgb(24.383545%, 89.259338%, 70.892334%)" offset="0.675781"/><stop stop-opacity="1" stop-color="rgb(24.546814%, 89.189148%, 71.363831%)" offset="0.679687"/><stop stop-opacity="1" stop-color="rgb(24.708557%, 89.117432%, 71.833801%)" offset="0.683594"/><stop stop-opacity="1" stop-color="rgb(24.8703%, 89.045715%, 72.305298%)" offset="0.6875"/><stop stop-opacity="1" stop-color="rgb(25.032043%, 88.973999%, 72.775269%)" offset="0.691406"/><stop stop-opacity="1" stop-color="rgb(25.193787%, 88.903809%, 73.246765%)" offset="0.695312"/><stop stop-opacity="1" stop-color="rgb(25.35553%, 88.832092%, 73.716736%)" offset="0.699219"/><stop stop-opacity="1" stop-color="rgb(25.517273%, 88.760376%, 74.188232%)" offset="0.703125"/><stop stop-opacity="1" stop-color="rgb(25.679016%, 88.68866%, 74.658203%)" offset="0.707031"/><stop stop-opacity="1" stop-color="rgb(25.840759%, 88.618469%, 75.1297%)" offset="0.710938"/><stop stop-opacity="1" stop-color="rgb(26.002502%, 88.546753%, 75.59967%)" offset="0.714844"/><stop stop-opacity="1" stop-color="rgb(26.165771%, 88.476562%, 76.071167%)" offset="0.71875"/><stop stop-opacity="1" stop-color="rgb(26.327515%, 88.404846%, 76.541138%)" offset="0.722656"/><stop stop-opacity="1" stop-color="rgb(26.489258%, 88.33313%, 77.012634%)" offset="0.726562"/><stop stop-opacity="1" stop-color="rgb(26.651001%, 88.261414%, 77.482605%)" offset="0.730469"/><stop stop-opacity="1" stop-color="rgb(26.812744%, 88.191223%, 77.952576%)" offset="0.734375"/><stop stop-opacity="1" stop-color="rgb(26.974487%, 88.119507%, 78.422546%)" offset="0.738281"/><stop stop-opacity="1" stop-color="rgb(27.13623%, 88.047791%, 78.894043%)" offset="0.742188"/><stop stop-opacity="1" stop-color="rgb(27.297974%, 87.976074%, 79.364014%)" offset="0.746094"/><stop stop-opacity="1" stop-color="rgb(27.459717%, 87.905884%, 79.83551%)" offset="0.75"/><stop stop-opacity="1" stop-color="rgb(27.62146%, 87.834167%, 80.305481%)" offset="0.753906"/><stop stop-opacity="1" stop-color="rgb(27.783203%, 87.762451%, 80.776978%)" offset="0.757812"/><stop stop-opacity="1" stop-color="rgb(27.944946%, 87.690735%, 81.246948%)" offset="0.761719"/><stop stop-opacity="1" stop-color="rgb(28.108215%, 87.620544%, 81.718445%)" offset="0.765625"/><stop stop-opacity="1" stop-color="rgb(28.269958%, 87.548828%, 82.188416%)" offset="0.769531"/><stop stop-opacity="1" stop-color="rgb(28.431702%, 87.477112%, 82.659912%)" offset="0.773437"/><stop stop-opacity="1" stop-color="rgb(28.593445%, 87.405396%, 83.129883%)" offset="0.777344"/><stop stop-opacity="1" stop-color="rgb(28.755188%, 87.335205%, 83.601379%)" offset="0.78125"/><stop stop-opacity="1" stop-color="rgb(28.916931%, 87.263489%, 84.07135%)" offset="0.785156"/><stop stop-opacity="1" stop-color="rgb(29.078674%, 87.193298%, 84.542847%)" offset="0.789062"/><stop stop-opacity="1" stop-color="rgb(29.240417%, 87.121582%, 85.012817%)" offset="0.792969"/><stop stop-opacity="1" stop-color="rgb(29.402161%, 87.049866%, 85.484314%)" offset="0.796875"/><stop stop-opacity="1" stop-color="rgb(29.563904%, 86.978149%, 85.954285%)" offset="0.800781"/><stop stop-opacity="1" stop-color="rgb(29.727173%, 86.907959%, 86.425781%)" offset="0.804688"/><stop stop-opacity="1" stop-color="rgb(29.888916%, 86.836243%, 86.895752%)" offset="0.808594"/><stop stop-opacity="1" stop-color="rgb(30.050659%, 86.764526%, 87.367249%)" offset="0.8125"/><stop stop-opacity="1" stop-color="rgb(30.123901%, 86.730957%, 87.582397%)" offset="0.816406"/><stop stop-opacity="1" stop-color="rgb(30.198669%, 86.698914%, 87.799072%)" offset="0.820312"/><stop stop-opacity="1" stop-color="rgb(30.198669%, 86.698914%, 87.799072%)" offset="0.828125"/><stop stop-opacity="1" stop-color="rgb(30.198669%, 86.698914%, 87.799072%)" offset="0.84375"/><stop stop-opacity="1" stop-color="rgb(30.198669%, 86.698914%, 87.799072%)" offset="0.875"/><stop stop-opacity="1" stop-color="rgb(30.198669%, 86.698914%, 87.799072%)" offset="1"/></linearGradient></defs><g clip-path="url(#id1)"><g clip-path="url(#id2)"><path fill="url(#id3)" d="M 74.167969 46.011719 L 63.761719 343.59375 L 311.777344 336.015625 L 322.183594 38.433594 Z M 74.167969 46.011719 " fill-rule="nonzero"/></g></g></svg>